<svg width="20" height="20" viewBox="0 0 20 20" fill="none" xmlns="http://www.w3.org/2000/svg">
<path d="M15.2988 8.32955V3.00226L10 0L4.70119 3.00226V8.32959L0 10.9932V16.9977L5.29881 20L10 17.3364L14.7012 20L20 16.9977V10.9932L15.2988 8.32955ZM4.70119 18.307L1.1952 16.3205V12.3476L4.70119 14.3341V18.307ZM1.79282 11.3318L5.29881 9.34537L8.8048 11.3318L5.29881 13.3183L1.79282 11.3318ZM9.40238 16.3205L5.89639 18.307V14.334L9.40238 12.3476V16.3205V16.3205ZM9.40238 10.316L5.89639 8.32955V4.35663L9.40238 6.34307V10.316V10.316ZM6.49401 3.34085L10 1.35441L13.506 3.34085L10 5.32729L6.49401 3.34085ZM14.1036 4.35663V8.32955L10.5976 10.316V6.34307L14.1036 4.35663ZM14.1036 18.307L10.5976 16.3205V12.3476L14.1036 14.3341V18.307ZM11.1952 11.3318L14.7012 9.34537L18.2072 11.3318L14.7012 13.3183L11.1952 11.3318ZM18.8048 16.3205L15.2988 18.307V14.334L18.8048 12.3476V16.3205Z" fill="#B17955"/>
</svg>
