<svg width="24" height="24" viewBox="0 0 24 24" fill="none" xmlns="http://www.w3.org/2000/svg">
<g clip-path="url(#clip0_1_2)">
<path fill-rule="evenodd" clip-rule="evenodd" d="M14.5575 2.7242C15.316 2.40993 16.129 2.24817 16.95 2.24817C17.771 2.24817 18.584 2.40993 19.3424 2.7242C20.1009 3.03848 20.79 3.49911 21.3705 4.07979C21.951 4.66014 22.4116 5.34918 22.7258 6.10755C23.0401 6.86602 23.2018 7.67898 23.2018 8.49999C23.2018 9.321 23.0401 10.134 22.7258 10.8924C22.4115 11.6509 21.9509 12.3399 21.3703 12.9203C21.3703 12.9204 21.3704 12.9203 21.3703 12.9203L12.5303 21.7603C12.2374 22.0532 11.7626 22.0532 11.4697 21.7603L2.62967 12.9203C1.45732 11.748 0.798706 10.1579 0.798706 8.49999C0.798706 6.84205 1.45732 5.25201 2.62967 4.07966C3.80201 2.90732 5.39205 2.2487 7.05 2.2487C8.70794 2.2487 10.298 2.90732 11.4703 4.07966L12 4.60933L12.5295 4.07979C13.1099 3.49911 13.7991 3.03848 14.5575 2.7242ZM20.3095 5.1402C19.8684 4.69889 19.3447 4.3488 18.7683 4.10995C18.1918 3.87111 17.574 3.74817 16.95 3.74817C16.326 3.74817 15.7082 3.87111 15.1317 4.10995C14.5553 4.3488 14.0316 4.69889 13.5905 5.1402L12.5303 6.20032C12.2374 6.49322 11.7626 6.49322 11.4697 6.20032L10.4097 5.14032C9.51863 4.24928 8.31012 3.7487 7.05 3.7487C5.78988 3.7487 4.58137 4.24928 3.69033 5.14032C2.79929 6.03136 2.29871 7.23987 2.29871 8.49999C2.29871 9.76012 2.79929 10.9686 3.69033 11.8597L12 20.1693L20.3097 11.8597C20.751 11.4186 21.1012 10.8947 21.34 10.3183C21.5789 9.74181 21.7018 9.12396 21.7018 8.49999C21.7018 7.87603 21.5789 7.25818 21.34 6.68173C21.1012 6.10529 20.7509 5.58131 20.3095 5.1402Z" fill="black"/>
</g>
<defs>
<clipPath id="clip0_1_2">
<rect width="24" height="24" fill="white"/>
</clipPath>
</defs>
</svg>
