<svg width="20" height="20" viewBox="0 0 20 20" fill="none" xmlns="http://www.w3.org/2000/svg">
<g clip-path="url(#clip0_1_2)">
<path d="M8.84559 0.000411987H2.62233C2.27861 0.000411987 2 0.280203 2 0.625381V19.3745C2 19.7196 2.27861 19.9994 2.62233 19.9994H8.84559C9.1893 19.9994 9.46791 19.7196 9.46791 19.3745V0.625381C9.46791 0.280203 9.18927 0.000411987 8.84559 0.000411987ZM8.22326 18.7495H3.24465V16.8746H6.35628V15.6246H3.24465V13.7497H5.11163V12.4998H3.24465V10.6249H6.35628V9.37495H3.24465V7.50004H5.11163V6.25011H3.24465V4.3752H6.35628V3.12526H3.24465V1.25035H8.22326V18.7495Z" fill="#B17955"/>
<path d="M17.1225 15.8122L15.0688 17.8684V2.13165L17.1163 4.1878L17.9938 3.3066L14.8821 0.181749C14.6394 -0.060583 14.2474 -0.060583 14.0047 0.181749L10.893 3.3066L11.7705 4.1878L13.8242 2.13165V17.8684L11.7767 15.8122L10.8993 16.6934L14.0109 19.8183C14.2536 20.0606 14.6456 20.0606 14.8884 19.8183L18 16.6934L17.1225 15.8122Z" fill="#B17955"/>
</g>
<defs>
<clipPath id="clip0_1_2">
<rect width="20" height="20" fill="white"/>
</clipPath>
</defs>
</svg>
