<svg width="24" height="24" viewBox="0 0 24 24"  xmlns="http://www.w3.org/2000/svg">
<g clip-path="url(#clip0_1_2)">
<path fill-rule="evenodd" clip-rule="evenodd" d="M11.2407 14.9987C11.3057 15.4078 11.0267 15.7921 10.6176 15.857C8.68159 16.1643 7.20286 17.0966 6.20913 18.1503C5.18995 19.2309 4.75 20.359 4.75 21C4.75 21.4142 4.41421 21.75 4 21.75C3.58579 21.75 3.25 21.4142 3.25 21C3.25 19.843 3.94474 18.365 5.1179 17.1211C6.31652 15.8502 8.08778 14.7397 10.3824 14.3755C10.7915 14.3106 11.1758 14.5896 11.2407 14.9987Z" />
<path fill-rule="evenodd" clip-rule="evenodd" d="M12 3.75C10.2051 3.75 8.75 5.20507 8.75 7C8.75 8.79493 10.2051 10.25 12 10.25C13.7949 10.25 15.25 8.79493 15.25 7C15.25 5.20507 13.7949 3.75 12 3.75ZM7.25 7C7.25 4.37665 9.37665 2.25 12 2.25C14.6234 2.25 16.75 4.37665 16.75 7C16.75 9.62335 14.6234 11.75 12 11.75C9.37665 11.75 7.25 9.62335 7.25 7Z" />
<path fill-rule="evenodd" clip-rule="evenodd" d="M17.9999 13.0833L18.0371 13.0834L18.1402 13.0837C18.2292 13.0841 18.3568 13.0849 18.5123 13.0864C18.8231 13.0894 19.2465 13.0955 19.6955 13.1077C20.1435 13.1198 20.6226 13.1382 21.043 13.1662C21.4441 13.1929 21.8507 13.2316 22.1196 13.2972C22.1284 13.2994 22.1371 13.3017 22.1458 13.3042C22.4886 13.4011 22.7997 13.5868 23.0477 13.8425C23.2957 14.0982 23.4719 14.4148 23.5584 14.7604L22.8308 14.9425L23.5689 14.8094C23.7223 15.6597 23.7969 16.5223 23.7917 17.3864C23.7945 18.2375 23.72 19.0871 23.5689 19.9247C23.566 19.9412 23.5624 19.9575 23.5584 19.9738C23.4719 20.3193 23.2957 20.6359 23.0477 20.8916C22.7997 21.1473 22.4886 21.333 22.1458 21.43L22.1355 21.4329C21.8606 21.5064 21.4486 21.549 21.0478 21.5782C20.626 21.609 20.1459 21.6292 19.6975 21.6425C19.2479 21.6558 18.8241 21.6625 18.513 21.6658C18.3574 21.6675 18.2296 21.6683 18.1406 21.6687L18.0373 21.6691L18.0008 21.6692L17.9627 21.6691L17.8594 21.6687C17.7704 21.6683 17.6426 21.6675 17.4869 21.6658C17.1759 21.6625 16.7521 21.6558 16.3025 21.6425C15.8541 21.6292 15.374 21.609 14.9522 21.5782C14.5514 21.549 14.1394 21.5064 13.8646 21.4329L13.8604 21.4317C13.5246 21.3399 13.2182 21.1629 12.9707 20.918C12.7233 20.6731 12.5432 20.3686 12.4478 20.0338C12.4411 20.0099 12.4355 19.9858 12.4311 19.9615C12.2777 19.1113 12.2032 18.2488 12.2083 17.3849C12.2043 16.5275 12.2789 15.6715 12.4311 14.8277C12.434 14.8113 12.4376 14.7949 12.4416 14.7787C12.5281 14.4332 12.7043 14.1166 12.9523 13.8609C13.2003 13.6052 13.5114 13.4195 13.8542 13.3225L13.8645 13.3196C14.1394 13.2461 14.5514 13.2035 14.9522 13.1743C15.374 13.1435 15.8541 13.1233 16.3025 13.11C16.7521 13.0967 17.1759 13.09 17.4869 13.0867C17.6426 13.085 17.7704 13.0842 17.8594 13.0837L17.9627 13.0834L17.9999 13.0833ZM18.0339 20.1691L18.1335 20.1688C18.22 20.1684 18.3447 20.1675 18.497 20.1659C18.8019 20.1626 19.2157 20.1561 19.6529 20.1431C20.0914 20.1301 20.5475 20.1107 20.9386 20.0822C21.3449 20.0526 21.6205 20.0168 21.7426 19.9852C21.8294 19.9597 21.9081 19.9122 21.971 19.8472C22.0306 19.7858 22.0742 19.7108 22.0981 19.6288C22.2296 18.8892 22.2944 18.1393 22.2917 17.3881L22.2916 17.3807C22.2964 16.6179 22.2317 15.8563 22.0981 15.1053C22.0742 15.0234 22.0306 14.9484 21.971 14.8869C21.9098 14.8238 21.8337 14.7771 21.7498 14.7512C21.6182 14.7215 21.3407 14.6893 20.9434 14.6629C20.5509 14.6367 20.0938 14.619 19.6549 14.6071C19.2171 14.5952 18.8028 14.5893 18.4977 14.5863C18.3453 14.5848 18.2204 14.5841 18.1338 14.5837L18.0341 14.5834L17.966 14.5834L17.8665 14.5837C17.78 14.5841 17.6553 14.585 17.503 14.5866C17.1981 14.5898 16.7843 14.5964 16.3471 14.6094C15.9086 14.6224 15.4525 14.6418 15.0614 14.6703C14.6553 14.6999 14.3796 14.7357 14.2575 14.7673C14.1707 14.7928 14.092 14.8403 14.029 14.9052C13.9694 14.9667 13.9258 15.0417 13.9019 15.1237C13.7694 15.8689 13.7046 16.6247 13.7083 17.3817L13.7084 17.3901C13.7036 18.148 13.7675 18.9048 13.8994 19.6511C13.9256 19.7267 13.9688 19.7954 14.0259 19.8519C14.0895 19.9148 14.1681 19.9604 14.2542 19.9844C14.3747 20.0161 14.6516 20.0523 15.0614 20.0822C15.4525 20.1107 15.9086 20.1301 16.3471 20.1431C16.7843 20.1561 17.1981 20.1626 17.503 20.1659C17.6553 20.1675 17.78 20.1684 17.8665 20.1688L17.966 20.1691H18.0339Z" />
<path d="M16.9688 18.8842L19.6042 17.3854L16.9688 15.8867V18.8842Z" />
</g>
<defs>
<clipPath id="clip0_1_2">
<rect width="24" height="24" fill="white" transform="translate(24 24) rotate(-180)"/>
</clipPath>
</defs>
</svg>
