<svg width="220" height="28" viewBox="0 0 220 28" fill="none" xmlns="http://www.w3.org/2000/svg">
<g clip-path="url(#clip0_1_2)">
<path d="M103.148 12.43H118.148V14.89H103.148V12.43Z" fill="black"/>
<path d="M137.119 13.15H133.219V22H129.379V1H133.219V9.79H137.239L143.269 1H147.409L140.239 11.17L147.679 22H143.269L137.119 13.15Z" fill="black"/>
<path d="M164.821 5.98L157.321 23.29C156.621 25.03 155.771 26.25 154.771 26.95C153.771 27.67 152.561 28.03 151.141 28.03C150.341 28.03 149.551 27.9 148.771 27.64C147.991 27.38 147.351 27.02 146.851 26.56L148.351 23.8C148.711 24.14 149.131 24.41 149.611 24.61C150.111 24.81 150.611 24.91 151.111 24.91C151.771 24.91 152.311 24.74 152.731 24.4C153.171 24.06 153.571 23.49 153.931 22.69L154.201 22.06L147.211 5.98H151.111L156.151 17.83L161.221 5.98H164.821Z" fill="black"/>
<path d="M176.538 22L172.428 16.45L168.288 22H164.148L170.388 13.87L164.418 5.98H168.588L172.518 11.23L176.448 5.98H180.498L174.498 13.81L180.768 22H176.538Z" fill="black"/>
<path d="M183.451 5.98H187.201V12.49H195.271V5.98H199.021V22H195.271V15.67H187.201V22H183.451V5.98Z" fill="black"/>
<path d="M204.047 5.98H207.797V16.54L216.647 5.98H220.067V22H216.317V11.44L207.497 22H204.047V5.98Z" fill="black"/>
<path d="M16.59 17.14H6.09L4.02 22H0L9.45 1H13.29L22.77 22H18.69L16.59 17.14ZM15.3 14.08L11.34 4.9L7.41 14.08H15.3Z" fill="#B17955"/>
<path d="M25.5703 5.98H29.3203V12.49H37.3903V5.98H41.1403V22H37.3903V15.67H29.3203V22H25.5703V5.98Z" fill="#B17955"/>
<path d="M52.136 5.8C54.496 5.8 56.296 6.37 57.536 7.51C58.796 8.63 59.426 10.33 59.426 12.61V22H55.886V20.05C55.426 20.75 54.766 21.29 53.906 21.67C53.066 22.03 52.046 22.21 50.846 22.21C49.646 22.21 48.596 22.01 47.696 21.61C46.796 21.19 46.096 20.62 45.596 19.9C45.116 19.16 44.876 18.33 44.876 17.41C44.876 15.97 45.406 14.82 46.466 13.96C47.546 13.08 49.236 12.64 51.536 12.64H55.676V12.4C55.676 11.28 55.336 10.42 54.656 9.82C53.996 9.22 53.006 8.92 51.686 8.92C50.786 8.92 49.896 9.06 49.016 9.34C48.156 9.62 47.426 10.01 46.826 10.51L45.356 7.78C46.196 7.14 47.206 6.65 48.386 6.31C49.566 5.97 50.816 5.8 52.136 5.8ZM51.626 19.48C52.566 19.48 53.396 19.27 54.116 18.85C54.856 18.41 55.376 17.79 55.676 16.99V15.13H51.806C49.646 15.13 48.566 15.84 48.566 17.26C48.566 17.94 48.836 18.48 49.376 18.88C49.916 19.28 50.666 19.48 51.626 19.48Z" fill="#B17955"/>
<path d="M76.7564 9.16H71.1464V22H67.3964V9.16H61.7564V5.98H76.7564V9.16Z" fill="#B17955"/>
<path d="M85.4466 5.8C87.8066 5.8 89.6066 6.37 90.8466 7.51C92.1066 8.63 92.7366 10.33 92.7366 12.61V22H89.1966V20.05C88.7366 20.75 88.0766 21.29 87.2166 21.67C86.3766 22.03 85.3566 22.21 84.1566 22.21C82.9566 22.21 81.9066 22.01 81.0066 21.61C80.1066 21.19 79.4066 20.62 78.9066 19.9C78.4266 19.16 78.1866 18.33 78.1866 17.41C78.1866 15.97 78.7166 14.82 79.7766 13.96C80.8566 13.08 82.5466 12.64 84.8466 12.64H88.9866V12.4C88.9866 11.28 88.6466 10.42 87.9666 9.82C87.3066 9.22 86.3166 8.92 84.9966 8.92C84.0966 8.92 83.2066 9.06 82.3266 9.34C81.4666 9.62 80.7366 10.01 80.1366 10.51L78.6666 7.78C79.5066 7.14 80.5166 6.65 81.6966 6.31C82.8766 5.97 84.1266 5.8 85.4466 5.8ZM84.9366 19.48C85.8766 19.48 86.7066 19.27 87.4266 18.85C88.1666 18.41 88.6866 17.79 88.9866 16.99V15.13H85.1166C82.9566 15.13 81.8766 15.84 81.8766 17.26C81.8766 17.94 82.1466 18.48 82.6866 18.88C83.2266 19.28 83.9766 19.48 84.9366 19.48Z" fill="#B17955"/>
</g>
<defs>
<clipPath id="clip0_1_2">
<rect width="220" height="28" fill="white"/>
</clipPath>
</defs>
</svg>
