<svg width="220" height="28" viewBox="0 0 220 28" fill="none" xmlns="http://www.w3.org/2000/svg">
<g clip-path="url(#clip0_1_2)">
<path d="M103.117 11.8402H118.112V14.3885H103.117V11.8402Z" fill="white"/>
<path d="M137.077 12.586H133.178V21.7536H129.34V0L133.178 0V9.10544H137.197L143.225 0L147.364 0L140.196 10.535L147.634 21.7536H143.225L137.077 12.586Z" fill="white"/>
<path d="M164.771 5.15871L157.273 23.0899C156.574 24.8923 155.724 26.1561 154.724 26.8812C153.724 27.6271 152.515 28 151.095 28C150.295 28 149.506 27.8653 148.726 27.596C147.946 27.3267 147.306 26.9538 146.807 26.4773L148.306 23.6182C148.666 23.9704 149.086 24.2501 149.566 24.4573C150.066 24.6644 150.565 24.768 151.065 24.768C151.725 24.768 152.265 24.5919 152.685 24.2397C153.125 23.8875 153.524 23.2971 153.884 22.4684L154.154 21.8158L147.166 5.15871H151.065L156.104 17.434L161.172 5.15871H164.771Z" fill="white"/>
<path d="M176.484 21.7536L172.375 16.0044L168.236 21.7536H164.098L170.336 13.3319L164.368 5.15871H168.536L172.465 10.5971L176.394 5.15871H180.443L174.445 13.2697L180.713 21.7536H176.484Z" fill="white"/>
<path d="M183.395 5.15871H187.144V11.9023H195.212V5.15871H198.961V21.7536H195.212V15.1965H187.144V21.7536H183.395V5.15871Z" fill="white"/>
<path d="M203.985 5.15871H207.734V16.0977L216.581 5.15871H220V21.7536H216.251V10.8147L207.434 21.7536H203.985V5.15871Z" fill="white"/>
<path d="M16.585 16.7192H6.08815L4.01878 21.7536H0L9.44713 0L13.286 0L22.7631 21.7536H18.6843L16.585 16.7192ZM15.2954 13.5494L11.3366 4.03996L7.40775 13.5494H15.2954Z" fill="#B17955"/>
<path d="M25.5625 5.15871H29.3114V11.9023H37.379V5.15871H41.1278V21.7536H37.379V15.1965H29.3114V21.7536H25.5625V5.15871Z" fill="#B17955"/>
<path d="M52.1202 4.97225C54.4795 4.97225 56.2789 5.56271 57.5185 6.74362C58.7782 7.90381 59.408 9.66482 59.408 12.0266V21.7536H55.869V19.7336C55.4092 20.4588 54.7494 21.0181 53.8896 21.4118C53.0499 21.7847 52.0302 21.9711 50.8306 21.9711C49.6309 21.9711 48.5812 21.764 47.6815 21.3496C46.7818 20.9145 46.082 20.3241 45.5822 19.5782C45.1023 18.8117 44.8624 17.9519 44.8624 16.9989C44.8624 15.5072 45.3922 14.3159 46.4519 13.4251C47.5316 12.5135 49.2211 12.0577 51.5204 12.0577H55.6591V11.8091C55.6591 10.6489 55.3192 9.75805 54.6394 9.13652C53.9796 8.51498 52.9899 8.20422 51.6703 8.20422C50.7706 8.20422 49.8809 8.34924 49.0011 8.63929C48.1414 8.92934 47.4116 9.33334 46.8118 9.85128L45.3422 7.02331C46.182 6.36034 47.1917 5.85276 48.3713 5.50056C49.551 5.14835 50.8006 4.97225 52.1202 4.97225ZM51.6103 19.1432C52.55 19.1432 53.3798 18.9256 54.0996 18.4906C54.8394 18.0348 55.3592 17.3925 55.6591 16.5638V14.6371H51.7903C49.6309 14.6371 48.5513 15.3726 48.5513 16.8435C48.5513 17.5479 48.8212 18.1073 49.361 18.5216C49.9009 18.936 50.6506 19.1432 51.6103 19.1432Z" fill="#B17955"/>
<path d="M76.7331 8.45283H71.1248V21.7536H67.3759V8.45283H61.7376V5.15871H76.7331V8.45283Z" fill="#B17955"/>
<path d="M85.4206 4.97225C87.7799 4.97225 89.5793 5.56271 90.819 6.74362C92.0786 7.90381 92.7084 9.66482 92.7084 12.0266V21.7536H89.1695V19.7336C88.7096 20.4588 88.0498 21.0181 87.1901 21.4118C86.3503 21.7847 85.3306 21.9711 84.131 21.9711C82.9314 21.9711 81.8817 21.764 80.982 21.3496C80.0822 20.9145 79.3824 20.3241 78.8826 19.5782C78.4027 18.8117 78.1628 17.9519 78.1628 16.9989C78.1628 15.5072 78.6926 14.3159 79.7523 13.4251C80.832 12.5135 82.5215 12.0577 84.8208 12.0577H88.9595V11.8091C88.9595 10.6489 88.6196 9.75805 87.9398 9.13652C87.28 8.51498 86.2903 8.20422 84.9707 8.20422C84.071 8.20422 83.1813 8.34924 82.3016 8.63929C81.4418 8.92934 80.712 9.33334 80.1122 9.85128L78.6427 7.02331C79.4824 6.36034 80.4921 5.85276 81.6717 5.50056C82.8514 5.14835 84.101 4.97225 85.4206 4.97225ZM84.9108 19.1432C85.8505 19.1432 86.6802 18.9256 87.4 18.4906C88.1398 18.0348 88.6596 17.3925 88.9595 16.5638V14.6371H85.0907C82.9314 14.6371 81.8517 15.3726 81.8517 16.8435C81.8517 17.5479 82.1216 18.1073 82.6614 18.5216C83.2013 18.936 83.9511 19.1432 84.9108 19.1432Z" fill="#B17955"/>
</g>
<defs>
<clipPath id="clip0_1_2">
<rect width="220" height="28" fill="white" transform="translate(220 28) rotate(-180)"/>
</clipPath>
</defs>
</svg>
