<?xml version="1.0" standalone="no"?>
<!DOCTYPE svg PUBLIC "-//W3C//DTD SVG 20010904//EN"
 "http://www.w3.org/TR/2001/REC-SVG-20010904/DTD/svg10.dtd">
<svg version="1.0" xmlns="http://www.w3.org/2000/svg"
 width="700.000000pt" height="700.000000pt" viewBox="0 0 700.000000 700.000000"
 preserveAspectRatio="xMidYMid meet">
<metadata>
Created by potrace 1.14, written by Peter Selinger 2001-2017
</metadata>
<g transform="translate(0.000000,700.000000) scale(0.100000,-0.100000)"
fill="#000000" stroke="none">
<path d="M3278 6995 c-1 -1 -42 -5 -89 -9 -47 -4 -95 -8 -105 -10 -10 -2 -41
-7 -69 -10 -428 -56 -875 -210 -1270 -439 -103 -60 -265 -165 -315 -204 -8 -6
-51 -40 -95 -74 -353 -275 -673 -651 -897 -1054 -49 -87 -148 -289 -148 -301
0 -2 -9 -23 -20 -47 -57 -123 -157 -435 -186 -582 -2 -11 -10 -54 -19 -95 -29
-147 -36 -200 -52 -370 -15 -164 -8 -592 12 -711 2 -13 6 -46 9 -74 9 -78 22
-152 51 -285 21 -96 91 -339 114 -395 5 -11 25 -65 46 -120 63 -166 249 -531
312 -610 4 -6 34 -49 65 -95 170 -255 433 -535 708 -755 92 -74 370 -265 386
-265 4 0 15 -6 23 -14 26 -22 298 -158 411 -205 267 -111 589 -200 859 -237
25 -3 57 -8 71 -10 163 -25 682 -25 842 1 13 2 46 7 73 10 71 10 87 13 115 18
14 3 43 8 65 12 22 4 76 16 120 27 44 10 87 21 96 23 25 5 157 45 219 65 178
57 568 235 660 300 15 11 33 20 39 20 6 0 11 5 11 10 0 6 5 10 10 10 15 0 220
141 330 227 152 118 324 280 450 422 36 41 70 79 76 85 6 6 48 61 94 121 150
197 277 405 383 628 26 53 47 99 47 102 0 2 11 28 24 57 57 127 151 421 182
573 17 81 54 301 59 350 4 33 9 71 11 85 9 46 11 524 4 605 -15 153 -21 210
-25 225 -2 8 -7 35 -10 60 -17 129 -80 384 -136 552 -323 963 -1056 1744
-1999 2131 -222 91 -558 185 -760 212 -19 3 -46 7 -60 10 -13 2 -52 7 -86 11
-33 3 -74 8 -90 10 -32 5 -540 14 -546 9z m682 -1607 c80 -177 161 -358 180
-402 20 -45 45 -101 57 -126 12 -25 31 -67 44 -95 49 -111 68 -153 99 -220 18
-38 58 -128 90 -200 32 -71 72 -161 90 -200 17 -38 38 -83 45 -100 7 -16 38
-84 68 -150 73 -161 105 -232 127 -280 9 -22 30 -67 45 -100 15 -33 77 -170
137 -305 61 -135 124 -274 140 -310 17 -36 47 -103 68 -150 21 -47 49 -111 64
-142 14 -32 38 -84 52 -115 14 -32 69 -152 121 -267 52 -116 99 -220 104 -233
l9 -23 -363 0 -362 0 -74 173 c-41 94 -84 195 -96 222 -13 28 -62 142 -110
255 -49 113 -90 207 -92 210 -3 3 -425 5 -938 5 l-934 1 -117 -276 c-65 -151
-147 -345 -184 -430 l-66 -155 -357 -3 c-196 -1 -357 0 -357 3 0 2 18 43 40
90 22 47 40 87 40 89 0 2 15 37 34 78 18 40 51 111 71 158 21 47 55 123 76
168 22 46 39 86 39 87 0 2 18 43 41 92 23 48 59 129 81 178 22 50 51 115 65
145 14 30 42 93 63 140 21 47 49 110 63 140 13 30 57 127 97 215 39 88 83 185
97 215 46 103 52 115 96 215 25 55 56 125 70 155 22 50 142 315 187 415 10 22
50 112 90 200 39 88 77 174 85 190 7 17 48 107 90 200 42 94 86 190 97 215 11
25 33 73 49 108 16 35 29 65 29 66 0 2 18 42 40 90 l40 86 342 0 343 0 145
-322z"/>
<path d="M3375 4802 c-49 -114 -99 -229 -111 -257 -12 -27 -34 -79 -49 -115
-15 -36 -35 -83 -45 -105 -10 -22 -63 -148 -119 -280 -56 -132 -110 -258 -120
-280 -10 -22 -35 -79 -55 -128 -20 -48 -45 -106 -55 -130 -23 -48 -51 -118
-51 -123 0 -2 315 -4 700 -4 658 0 699 1 693 18 -3 9 -19 45 -34 80 -16 35
-29 66 -29 68 0 3 -8 24 -19 47 -62 139 -121 276 -121 281 0 3 -13 34 -30 68
-16 34 -30 65 -30 69 0 5 -11 32 -25 61 -58 126 -245 563 -245 575 0 7 -4 13
-10 13 -5 0 -10 6 -10 13 0 8 -6 27 -14 43 -8 16 -38 85 -67 154 -29 69 -55
128 -59 132 -3 5 -46 -85 -95 -200z"/>
</g>
</svg>
