<svg width="0" height="0" class="hidden">
  <symbol xmlns="http://www.w3.org/2000/svg" viewBox="0 0 20 20" id="cube">
    <path d="M15.2988 8.32955V3.00226L10 0L4.70119 3.00226V8.32959L0 10.9932V16.9977L5.29881 20L10 17.3364L14.7012 20L20 16.9977V10.9932L15.2988 8.32955ZM4.70119 18.307L1.1952 16.3205V12.3476L4.70119 14.3341V18.307ZM1.79282 11.3318L5.29881 9.34537L8.8048 11.3318L5.29881 13.3183L1.79282 11.3318ZM9.40238 16.3205L5.89639 18.307V14.334L9.40238 12.3476V16.3205V16.3205ZM9.40238 10.316L5.89639 8.32955V4.35663L9.40238 6.34307V10.316V10.316ZM6.49401 3.34085L10 1.35441L13.506 3.34085L10 5.32729L6.49401 3.34085ZM14.1036 4.35663V8.32955L10.5976 10.316V6.34307L14.1036 4.35663ZM14.1036 18.307L10.5976 16.3205V12.3476L14.1036 14.3341V18.307ZM11.1952 11.3318L14.7012 9.34537L18.2072 11.3318L14.7012 13.3183L11.1952 11.3318ZM18.8048 16.3205L15.2988 18.307V14.334L18.8048 12.3476V16.3205Z"></path>
  </symbol>
  <symbol xmlns="http://www.w3.org/2000/svg" viewBox="0 0 24 24" id="heart">
    <g clip-path="url(#clip0_1_2)">
      <path fill-rule="evenodd" clip-rule="evenodd" d="M14.5575 2.7242C15.316 2.40993 16.129 2.24817 16.95 2.24817C17.771 2.24817 18.584 2.40993 19.3424 2.7242C20.1009 3.03848 20.79 3.49911 21.3705 4.07979C21.951 4.66014 22.4116 5.34918 22.7258 6.10755C23.0401 6.86602 23.2018 7.67898 23.2018 8.49999C23.2018 9.321 23.0401 10.134 22.7258 10.8924C22.4115 11.6509 21.9509 12.3399 21.3703 12.9203C21.3703 12.9204 21.3704 12.9203 21.3703 12.9203L12.5303 21.7603C12.2374 22.0532 11.7626 22.0532 11.4697 21.7603L2.62967 12.9203C1.45732 11.748 0.798706 10.1579 0.798706 8.49999C0.798706 6.84205 1.45732 5.25201 2.62967 4.07966C3.80201 2.90732 5.39205 2.2487 7.05 2.2487C8.70794 2.2487 10.298 2.90732 11.4703 4.07966L12 4.60933L12.5295 4.07979C13.1099 3.49911 13.7991 3.03848 14.5575 2.7242ZM20.3095 5.1402C19.8684 4.69889 19.3447 4.3488 18.7683 4.10995C18.1918 3.87111 17.574 3.74817 16.95 3.74817C16.326 3.74817 15.7082 3.87111 15.1317 4.10995C14.5553 4.3488 14.0316 4.69889 13.5905 5.1402L12.5303 6.20032C12.2374 6.49322 11.7626 6.49322 11.4697 6.20032L10.4097 5.14032C9.51863 4.24928 8.31012 3.7487 7.05 3.7487C5.78988 3.7487 4.58137 4.24928 3.69033 5.14032C2.79929 6.03136 2.29871 7.23987 2.29871 8.49999C2.29871 9.76012 2.79929 10.9686 3.69033 11.8597L12 20.1693L20.3097 11.8597C20.751 11.4186 21.1012 10.8947 21.34 10.3183C21.5789 9.74181 21.7018 9.12396 21.7018 8.49999C21.7018 7.87603 21.5789 7.25818 21.34 6.68173C21.1012 6.10529 20.7509 5.58131 20.3095 5.1402Z"></path>
    </g>
    <defs>
      <clipPath id="clip0_1_2">
        <rect width="24" height="24" fill="white"></rect>
      </clipPath>
    </defs>
  </symbol>
  <symbol xmlns="http://www.w3.org/2000/svg" viewBox="0 0 20 20" id="ruler">
    <g clip-path="url(#clip0_1_2)">
      <path d="M8.84559 0.000411987H2.62233C2.27861 0.000411987 2 0.280203 2 0.625381V19.3745C2 19.7196 2.27861 19.9994 2.62233 19.9994H8.84559C9.1893 19.9994 9.46791 19.7196 9.46791 19.3745V0.625381C9.46791 0.280203 9.18927 0.000411987 8.84559 0.000411987ZM8.22326 18.7495H3.24465V16.8746H6.35628V15.6246H3.24465V13.7497H5.11163V12.4998H3.24465V10.6249H6.35628V9.37495H3.24465V7.50004H5.11163V6.25011H3.24465V4.3752H6.35628V3.12526H3.24465V1.25035H8.22326V18.7495Z"></path>
      <path d="M17.1225 15.8122L15.0688 17.8684V2.13165L17.1163 4.1878L17.9938 3.3066L14.8821 0.181749C14.6394 -0.060583 14.2474 -0.060583 14.0047 0.181749L10.893 3.3066L11.7705 4.1878L13.8242 2.13165V17.8684L11.7767 15.8122L10.8993 16.6934L14.0109 19.8183C14.2536 20.0606 14.6456 20.0606 14.8884 19.8183L18 16.6934L17.1225 15.8122Z"></path>
    </g>
    <defs>
      <clipPath id="clip0_1_2">
        <rect width="20" height="20" fill="white"></rect>
      </clipPath>
    </defs>
  </symbol>
</svg>