<svg width="0" height="0" class="hidden">
  <symbol xmlns="http://www.w3.org/2000/svg" viewBox="0 0 16 26" id="arrow">
    <path fill-rule="evenodd" clip-rule="evenodd" d="M0.377239 0.429744C0.907784 -0.114522 1.80105 -0.146037 2.37241 0.359352L15.5489 12.0145C15.8365 12.269 16 12.626 16 13C16 13.374 15.8365 13.731 15.5489 13.9855L2.37241 25.6406C1.80105 26.146 0.907784 26.1145 0.377239 25.5703C-0.153306 25.026 -0.120222 24.1751 0.451134 23.6697L12.5135 13L0.451134 2.33031C-0.120222 1.82492 -0.153306 0.97401 0.377239 0.429744Z"></path>
  </symbol>
  <symbol xmlns="http://www.w3.org/2000/svg" viewBox="0 0 20 20" id="cube">
    <path d="M15.2988 8.32955V3.00226L10 0L4.70119 3.00226V8.32959L0 10.9932V16.9977L5.29881 20L10 17.3364L14.7012 20L20 16.9977V10.9932L15.2988 8.32955ZM4.70119 18.307L1.1952 16.3205V12.3476L4.70119 14.3341V18.307ZM1.79282 11.3318L5.29881 9.34537L8.8048 11.3318L5.29881 13.3183L1.79282 11.3318ZM9.40238 16.3205L5.89639 18.307V14.334L9.40238 12.3476V16.3205V16.3205ZM9.40238 10.316L5.89639 8.32955V4.35663L9.40238 6.34307V10.316V10.316ZM6.49401 3.34085L10 1.35441L13.506 3.34085L10 5.32729L6.49401 3.34085ZM14.1036 4.35663V8.32955L10.5976 10.316V6.34307L14.1036 4.35663ZM14.1036 18.307L10.5976 16.3205V12.3476L14.1036 14.3341V18.307ZM11.1952 11.3318L14.7012 9.34537L18.2072 11.3318L14.7012 13.3183L11.1952 11.3318ZM18.8048 16.3205L15.2988 18.307V14.334L18.8048 12.3476V16.3205Z"></path>
  </symbol>
  <symbol xmlns="http://www.w3.org/2000/svg" viewBox="0 0 24 24" id="heart">
    <g clip-path="url(#clip0_1_2)">
      <path fill-rule="evenodd" clip-rule="evenodd" d="M14.5575 2.7242C15.316 2.40993 16.129 2.24817 16.95 2.24817C17.771 2.24817 18.584 2.40993 19.3424 2.7242C20.1009 3.03848 20.79 3.49911 21.3705 4.07979C21.951 4.66014 22.4116 5.34918 22.7258 6.10755C23.0401 6.86602 23.2018 7.67898 23.2018 8.49999C23.2018 9.321 23.0401 10.134 22.7258 10.8924C22.4115 11.6509 21.9509 12.3399 21.3703 12.9203C21.3703 12.9204 21.3704 12.9203 21.3703 12.9203L12.5303 21.7603C12.2374 22.0532 11.7626 22.0532 11.4697 21.7603L2.62967 12.9203C1.45732 11.748 0.798706 10.1579 0.798706 8.49999C0.798706 6.84205 1.45732 5.25201 2.62967 4.07966C3.80201 2.90732 5.39205 2.2487 7.05 2.2487C8.70794 2.2487 10.298 2.90732 11.4703 4.07966L12 4.60933L12.5295 4.07979C13.1099 3.49911 13.7991 3.03848 14.5575 2.7242ZM20.3095 5.1402C19.8684 4.69889 19.3447 4.3488 18.7683 4.10995C18.1918 3.87111 17.574 3.74817 16.95 3.74817C16.326 3.74817 15.7082 3.87111 15.1317 4.10995C14.5553 4.3488 14.0316 4.69889 13.5905 5.1402L12.5303 6.20032C12.2374 6.49322 11.7626 6.49322 11.4697 6.20032L10.4097 5.14032C9.51863 4.24928 8.31012 3.7487 7.05 3.7487C5.78988 3.7487 4.58137 4.24928 3.69033 5.14032C2.79929 6.03136 2.29871 7.23987 2.29871 8.49999C2.29871 9.76012 2.79929 10.9686 3.69033 11.8597L12 20.1693L20.3097 11.8597C20.751 11.4186 21.1012 10.8947 21.34 10.3183C21.5789 9.74181 21.7018 9.12396 21.7018 8.49999C21.7018 7.87603 21.5789 7.25818 21.34 6.68173C21.1012 6.10529 20.7509 5.58131 20.3095 5.1402Z"></path>
    </g>
    <defs>
      <clipPath id="clip0_1_2">
        <rect width="24" height="24" fill="white"></rect>
      </clipPath>
    </defs>
  </symbol>
  <symbol xmlns="http://www.w3.org/2000/svg" viewBox="0 0 20 20" id="ruler">
    <g clip-path="url(#clip0_1_2)">
      <path d="M8.84559 0.000411987H2.62233C2.27861 0.000411987 2 0.280203 2 0.625381V19.3745C2 19.7196 2.27861 19.9994 2.62233 19.9994H8.84559C9.1893 19.9994 9.46791 19.7196 9.46791 19.3745V0.625381C9.46791 0.280203 9.18927 0.000411987 8.84559 0.000411987ZM8.22326 18.7495H3.24465V16.8746H6.35628V15.6246H3.24465V13.7497H5.11163V12.4998H3.24465V10.6249H6.35628V9.37495H3.24465V7.50004H5.11163V6.25011H3.24465V4.3752H6.35628V3.12526H3.24465V1.25035H8.22326V18.7495Z"></path>
      <path d="M17.1225 15.8122L15.0688 17.8684V2.13165L17.1163 4.1878L17.9938 3.3066L14.8821 0.181749C14.6394 -0.060583 14.2474 -0.060583 14.0047 0.181749L10.893 3.3066L11.7705 4.1878L13.8242 2.13165V17.8684L11.7767 15.8122L10.8993 16.6934L14.0109 19.8183C14.2536 20.0606 14.6456 20.0606 14.8884 19.8183L18 16.6934L17.1225 15.8122Z"></path>
    </g>
    <defs>
      <clipPath id="clip0_1_2">
        <rect width="20" height="20" fill="white"></rect>
      </clipPath>
    </defs>
  </symbol>  <symbol xmlns="http://www.w3.org/2000/svg" viewBox="0 0 16 16" id="info">
    <g clip-path="url(#clip0_16_31)">
      <path d="M7.99966 0C3.58197 0 0 3.58197 0 7.99966C0 12.4174 3.58197 16 7.99966 16C12.4174 16 16 12.4174 16 7.99966C16 3.58197 12.4174 0 7.99966 0ZM9.66502 12.3984C9.25325 12.5609 8.92546 12.6842 8.67962 12.7695C8.43445 12.8549 8.14933 12.8975 7.82493 12.8975C7.32648 12.8975 6.93841 12.7756 6.66209 12.5325C6.38578 12.2894 6.2483 11.9812 6.2483 11.6067C6.2483 11.4611 6.25845 11.3121 6.27877 11.1604C6.29977 11.0087 6.33295 10.838 6.37833 10.6463L6.89371 8.8259C6.93909 8.65117 6.97837 8.48525 7.00952 8.33084C7.04068 8.17507 7.05558 8.03217 7.05558 7.90214C7.05558 7.67052 7.00749 7.50798 6.912 7.41655C6.81515 7.32512 6.63297 7.28042 6.3614 7.28042C6.22866 7.28042 6.09185 7.30006 5.95166 7.34138C5.81283 7.38404 5.69227 7.42265 5.5934 7.46057L5.72952 6.89981C6.06679 6.76233 6.38984 6.64449 6.69799 6.54696C7.00614 6.44808 7.29735 6.39932 7.57164 6.39932C8.06671 6.39932 8.44868 6.51987 8.71754 6.75826C8.98506 6.99733 9.11983 7.30819 9.11983 7.69016C9.11983 7.7694 9.11035 7.90891 9.09206 8.10802C9.07378 8.30781 9.03924 8.48999 8.98912 8.65727L8.47644 10.4723C8.43445 10.6179 8.39721 10.7845 8.36334 10.9708C8.33016 11.157 8.3139 11.2992 8.3139 11.3947C8.3139 11.6358 8.36741 11.8004 8.47577 11.8877C8.58277 11.9751 8.77037 12.0191 9.03585 12.0191C9.16114 12.0191 9.30133 11.9968 9.45981 11.9534C9.61693 11.9101 9.73071 11.8715 9.8025 11.8383L9.66502 12.3984ZM9.57426 5.03128C9.3352 5.25342 9.04737 5.36449 8.71077 5.36449C8.37486 5.36449 8.08499 5.25342 7.84389 5.03128C7.60415 4.80914 7.48292 4.53892 7.48292 4.22332C7.48292 3.9084 7.60483 3.6375 7.84389 3.41333C8.08499 3.18849 8.37486 3.07674 8.71077 3.07674C9.04737 3.07674 9.33587 3.18849 9.57426 3.41333C9.81333 3.6375 9.93321 3.9084 9.93321 4.22332C9.93321 4.5396 9.81333 4.80914 9.57426 5.03128Z" fill-opacity="0.4"></path>
    </g>
    <defs>
      <clipPath id="clip0_16_31">
        <rect width="16" height="16" fill="white"></rect>
      </clipPath>
    </defs>
  </symbol>
  <symbol xmlns="http://www.w3.org/2000/svg" viewBox="0 0 32 32" id="telegram">
    <path fill-rule="evenodd" clip-rule="evenodd" d="M16.6667 32H15.3333C8.10667 32 4.48 32 2.24 29.76C0 27.52 0 23.8933 0 16.6933V15.3333C0 8.10667 0 4.48 2.22667 2.24C4.46667 0 8.08 0 15.3333 0H16.6667C23.9067 0 27.5333 0 29.7733 2.24C32 4.48 32 8.10667 32 15.3067V16.6667C32 23.8933 32 27.52 29.7733 29.76C27.5333 32 23.92 32 16.6667 32ZM16.7346 10.3618C15.0501 11.063 11.6809 12.5144 6.62719 14.7157C5.80656 15.0421 5.37587 15.3614 5.33795 15.6734C5.27127 16.2004 5.93135 16.4083 6.82825 16.6908C6.95128 16.7295 7.07877 16.7696 7.20945 16.8122C8.09508 17.0998 9.28666 17.4365 9.90416 17.4498C10.4675 17.4619 11.0931 17.2304 11.7837 16.7553C16.5071 13.5684 18.9419 11.9575 19.0962 11.9229C19.2046 11.8985 19.3536 11.8676 19.4538 11.9578C19.5567 12.0477 19.5458 12.2183 19.535 12.2641C19.4711 12.5425 16.888 14.9441 15.5438 16.1939C15.1213 16.5868 14.8211 16.8658 14.7603 16.9292C14.6242 17.0706 14.4855 17.2042 14.3522 17.3327C13.5303 18.125 12.9137 18.7194 14.3865 19.6898C15.1007 20.1602 15.6707 20.5485 16.2404 20.9365C16.8525 21.3535 17.4642 21.7702 18.254 22.2882C18.457 22.4213 18.6509 22.5595 18.8398 22.6941C19.5577 23.2059 20.2026 23.6656 21.0003 23.5923C21.4634 23.5498 21.9428 23.1143 22.1838 21.8153C22.758 18.7454 23.8874 12.0943 24.1474 9.35347C24.1718 9.11351 24.1419 8.80611 24.1203 8.67124C24.0959 8.53636 24.0471 8.34407 23.8738 8.20189C23.6652 8.03316 23.3456 7.99768 23.2021 8.00011C22.5494 8.01176 21.5501 8.35951 16.7346 10.3618Z"></path>
  </symbol>
  <symbol xmlns="http://www.w3.org/2000/svg" viewBox="0 0 24 24" id="usser">
    <g clip-path="url(#clip0_1_2)">
      <path fill-rule="evenodd" clip-rule="evenodd" d="M11.2407 14.9987C11.3057 15.4078 11.0267 15.7921 10.6176 15.857C8.68159 16.1643 7.20286 17.0966 6.20913 18.1503C5.18995 19.2309 4.75 20.359 4.75 21C4.75 21.4142 4.41421 21.75 4 21.75C3.58579 21.75 3.25 21.4142 3.25 21C3.25 19.843 3.94474 18.365 5.1179 17.1211C6.31652 15.8502 8.08778 14.7397 10.3824 14.3755C10.7915 14.3106 11.1758 14.5896 11.2407 14.9987Z"></path>
      <path fill-rule="evenodd" clip-rule="evenodd" d="M12 3.75C10.2051 3.75 8.75 5.20507 8.75 7C8.75 8.79493 10.2051 10.25 12 10.25C13.7949 10.25 15.25 8.79493 15.25 7C15.25 5.20507 13.7949 3.75 12 3.75ZM7.25 7C7.25 4.37665 9.37665 2.25 12 2.25C14.6234 2.25 16.75 4.37665 16.75 7C16.75 9.62335 14.6234 11.75 12 11.75C9.37665 11.75 7.25 9.62335 7.25 7Z"></path>
      <path fill-rule="evenodd" clip-rule="evenodd" d="M17.9999 13.0833L18.0371 13.0834L18.1402 13.0837C18.2292 13.0841 18.3568 13.0849 18.5123 13.0864C18.8231 13.0894 19.2465 13.0955 19.6955 13.1077C20.1435 13.1198 20.6226 13.1382 21.043 13.1662C21.4441 13.1929 21.8507 13.2316 22.1196 13.2972C22.1284 13.2994 22.1371 13.3017 22.1458 13.3042C22.4886 13.4011 22.7997 13.5868 23.0477 13.8425C23.2957 14.0982 23.4719 14.4148 23.5584 14.7604L22.8308 14.9425L23.5689 14.8094C23.7223 15.6597 23.7969 16.5223 23.7917 17.3864C23.7945 18.2375 23.72 19.0871 23.5689 19.9247C23.566 19.9412 23.5624 19.9575 23.5584 19.9738C23.4719 20.3193 23.2957 20.6359 23.0477 20.8916C22.7997 21.1473 22.4886 21.333 22.1458 21.43L22.1355 21.4329C21.8606 21.5064 21.4486 21.549 21.0478 21.5782C20.626 21.609 20.1459 21.6292 19.6975 21.6425C19.2479 21.6558 18.8241 21.6625 18.513 21.6658C18.3574 21.6675 18.2296 21.6683 18.1406 21.6687L18.0373 21.6691L18.0008 21.6692L17.9627 21.6691L17.8594 21.6687C17.7704 21.6683 17.6426 21.6675 17.4869 21.6658C17.1759 21.6625 16.7521 21.6558 16.3025 21.6425C15.8541 21.6292 15.374 21.609 14.9522 21.5782C14.5514 21.549 14.1394 21.5064 13.8646 21.4329L13.8604 21.4317C13.5246 21.3399 13.2182 21.1629 12.9707 20.918C12.7233 20.6731 12.5432 20.3686 12.4478 20.0338C12.4411 20.0099 12.4355 19.9858 12.4311 19.9615C12.2777 19.1113 12.2032 18.2488 12.2083 17.3849C12.2043 16.5275 12.2789 15.6715 12.4311 14.8277C12.434 14.8113 12.4376 14.7949 12.4416 14.7787C12.5281 14.4332 12.7043 14.1166 12.9523 13.8609C13.2003 13.6052 13.5114 13.4195 13.8542 13.3225L13.8645 13.3196C14.1394 13.2461 14.5514 13.2035 14.9522 13.1743C15.374 13.1435 15.8541 13.1233 16.3025 13.11C16.7521 13.0967 17.1759 13.09 17.4869 13.0867C17.6426 13.085 17.7704 13.0842 17.8594 13.0837L17.9627 13.0834L17.9999 13.0833ZM18.0339 20.1691L18.1335 20.1688C18.22 20.1684 18.3447 20.1675 18.497 20.1659C18.8019 20.1626 19.2157 20.1561 19.6529 20.1431C20.0914 20.1301 20.5475 20.1107 20.9386 20.0822C21.3449 20.0526 21.6205 20.0168 21.7426 19.9852C21.8294 19.9597 21.9081 19.9122 21.971 19.8472C22.0306 19.7858 22.0742 19.7108 22.0981 19.6288C22.2296 18.8892 22.2944 18.1393 22.2917 17.3881L22.2916 17.3807C22.2964 16.6179 22.2317 15.8563 22.0981 15.1053C22.0742 15.0234 22.0306 14.9484 21.971 14.8869C21.9098 14.8238 21.8337 14.7771 21.7498 14.7512C21.6182 14.7215 21.3407 14.6893 20.9434 14.6629C20.5509 14.6367 20.0938 14.619 19.6549 14.6071C19.2171 14.5952 18.8028 14.5893 18.4977 14.5863C18.3453 14.5848 18.2204 14.5841 18.1338 14.5837L18.0341 14.5834L17.966 14.5834L17.8665 14.5837C17.78 14.5841 17.6553 14.585 17.503 14.5866C17.1981 14.5898 16.7843 14.5964 16.3471 14.6094C15.9086 14.6224 15.4525 14.6418 15.0614 14.6703C14.6553 14.6999 14.3796 14.7357 14.2575 14.7673C14.1707 14.7928 14.092 14.8403 14.029 14.9052C13.9694 14.9667 13.9258 15.0417 13.9019 15.1237C13.7694 15.8689 13.7046 16.6247 13.7083 17.3817L13.7084 17.3901C13.7036 18.148 13.7675 18.9048 13.8994 19.6511C13.9256 19.7267 13.9688 19.7954 14.0259 19.8519C14.0895 19.9148 14.1681 19.9604 14.2542 19.9844C14.3747 20.0161 14.6516 20.0523 15.0614 20.0822C15.4525 20.1107 15.9086 20.1301 16.3471 20.1431C16.7843 20.1561 17.1981 20.1626 17.503 20.1659C17.6553 20.1675 17.78 20.1684 17.8665 20.1688L17.966 20.1691H18.0339Z"></path>
      <path d="M16.9688 18.8842L19.6042 17.3854L16.9688 15.8867V18.8842Z"></path>
    </g>
    <defs>
      <clipPath id="clip0_1_2">
        <rect width="24" height="24" fill="white" transform="translate(24 24) rotate(-180)"></rect>
      </clipPath>
    </defs>
  </symbol>
  <symbol xmlns="http://www.w3.org/2000/svg" viewBox="0 0 32 32" id="vk">
    <path fill-rule="evenodd" clip-rule="evenodd" d="M16.6667 32H15.3333C8.10667 32 4.48 32 2.24 29.76C0 27.52 0 23.8933 0 16.6933V15.3333C0 8.10667 0 4.48 2.22667 2.24C4.46667 0 8.08 0 15.3333 0H16.6667C23.9067 0 27.5333 0 29.7733 2.24C32 4.48 32 8.10667 32 15.3067V16.6667C32 23.8933 32 27.52 29.7733 29.76C27.5333 32 23.92 32 16.6667 32ZM5.40002 9.73328C5.57336 18.0533 9.73336 23.0533 17.0267 23.0533H17.44V18.2933C18.7265 18.4553 19.9365 18.9934 20.9185 19.8401C21.9004 20.6869 22.6106 21.8046 22.96 23.0533H26.7467C26.3574 21.6157 25.6677 20.277 24.7231 19.1255C23.7785 17.9741 22.6005 17.036 21.2667 16.3733C22.4616 15.648 23.4939 14.6839 24.2992 13.5414C25.1045 12.3988 25.6653 11.1025 25.9467 9.73328H22.5067C21.76 12.3733 19.5467 14.7733 17.44 14.9999V9.73328H14V18.9599C11.8667 18.4266 9.17336 15.8399 9.05336 9.73328H5.40002Z"></path>
  </symbol>
  <symbol xmlns="http://www.w3.org/2000/svg" viewBox="0 0 24 24" id="youtube">
    <g clip-path="url(#clip0_1_2)">
      <path fill-rule="evenodd" clip-rule="evenodd" d="M11.9999 3.25C12 3.25 12 3.25 12 4L12 4.75L11.924 4.75011C11.8738 4.75022 11.7996 4.75044 11.7045 4.75089C11.5144 4.75178 11.2404 4.75357 10.9062 4.75714C10.2374 4.7643 9.32861 4.7786 8.36728 4.80717C7.40475 4.83577 6.39552 4.8785 5.52394 4.94208C4.63577 5.00686 3.95279 5.08951 3.599 5.18315C3.25729 5.2808 2.94718 5.46646 2.6997 5.7216C2.45637 5.97246 2.28201 6.28178 2.19334 6.61956C1.88991 8.31141 1.7415 10.0274 1.75 11.7463L1.75004 11.7547C1.73919 13.4823 1.88679 15.2071 2.19105 16.9077C2.28893 17.2304 2.46575 17.5239 2.70573 17.7614C2.95337 18.0065 3.25991 18.1837 3.59585 18.276C3.94872 18.37 4.63313 18.4529 5.52394 18.5179C6.39552 18.5815 7.40475 18.6242 8.36728 18.6528C9.32861 18.6814 10.2374 18.6957 10.9062 18.7029C11.2404 18.7064 11.5144 18.7082 11.7045 18.7091C11.7996 18.7096 11.8738 18.7098 11.924 18.7099L12 18.71L12 19.46C12 20.21 12 20.21 11.9999 20.21L11.9207 20.2099C11.8693 20.2098 11.7939 20.2095 11.6975 20.2091C11.5047 20.2082 11.2277 20.2064 10.8901 20.2028C10.2152 20.1955 9.2964 20.1811 8.32273 20.1522C7.35026 20.1233 6.31699 20.0798 5.41482 20.014C4.53363 19.9497 3.71397 19.8603 3.20624 19.7245L3.20207 19.7234C2.61647 19.5632 2.0821 19.2546 1.65058 18.8275C1.21906 18.4005 0.904978 17.8693 0.738688 17.2854C0.731909 17.2616 0.726312 17.2375 0.721918 17.2131C0.396731 15.4103 0.238753 13.5814 0.249996 11.7495C0.241269 9.93135 0.399235 8.11622 0.721913 6.3269C0.724879 6.31045 0.728393 6.29411 0.732451 6.27789C0.883287 5.67527 1.19048 5.12312 1.62301 4.67721C2.05554 4.23131 2.59808 3.90744 3.19583 3.73833L3.20622 3.73539C3.71395 3.5996 4.53363 3.51032 5.41482 3.44605C6.31699 3.38025 7.35026 3.33673 8.32273 3.30783C9.2964 3.2789 10.2152 3.26445 10.8901 3.25723C11.2277 3.25362 11.5047 3.25181 11.6975 3.25091C11.7939 3.25045 11.8693 3.25023 11.9207 3.25011L11.9999 3.25ZM20.401 18.2769C20.0472 18.3705 19.3642 18.4531 18.4761 18.5179C17.6045 18.5815 16.5953 18.6242 15.6327 18.6528C14.6714 18.6814 13.7627 18.6957 13.0939 18.7029C12.7596 18.7064 12.4857 18.7082 12.2955 18.7091C12.2004 18.7096 12.1263 18.7098 12.076 18.7099L12 18.71L12 19.46C12 20.21 12 20.21 11.9999 20.21L12.0793 20.2099C12.1307 20.2098 12.2061 20.2095 12.3025 20.2091C12.4953 20.2082 12.7723 20.2064 13.1099 20.2028C13.7849 20.1955 14.7036 20.1811 15.6773 20.1522C16.6498 20.1233 17.683 20.0798 18.5852 20.014C19.4664 19.9497 20.286 19.8603 20.7938 19.7245L20.8042 19.7217C21.4019 19.5526 21.9445 19.2287 22.377 18.7828C22.8095 18.3369 23.1167 17.7847 23.2676 17.1821C23.2716 17.1659 23.2751 17.1495 23.2781 17.1331C23.5983 15.3571 23.7563 13.5557 23.75 11.751C23.7613 9.91901 23.6033 8.08985 23.2781 6.28686L22.54 6.42L23.2676 6.23789C23.1167 5.63527 22.8095 5.08312 22.377 4.63721C21.9445 4.19131 21.4019 3.86744 20.8042 3.69833C20.7955 3.69586 20.7867 3.69356 20.7779 3.69141C20.2761 3.56888 19.4619 3.48755 18.5805 3.42885C17.6796 3.36885 16.6474 3.32915 15.6753 3.30278C14.7022 3.27637 13.7839 3.26319 13.1092 3.2566C12.7717 3.2533 12.4949 3.25165 12.3022 3.25083C12.2059 3.25041 12.1305 3.25021 12.0792 3.2501L11.9999 3.25C12 3.25 12 3.25 12 4L12 4.75L12.0762 4.7501L12.2958 4.75081C12.4861 4.75163 12.7602 4.75326 13.0946 4.75653C13.7636 4.76306 14.6728 4.77613 15.6347 4.80222C16.5976 4.82835 17.6079 4.8674 18.4808 4.92553C19.3622 4.98423 20.0469 5.05926 20.4088 5.14538C20.7474 5.24362 21.0547 5.4284 21.3003 5.6816C21.5437 5.93246 21.718 6.2418 21.8067 6.57958C22.1125 8.28423 22.2609 10.0134 22.25 11.7453L22.25 11.7527C22.2561 13.4585 22.1078 15.1614 21.8067 16.8404C21.718 17.1782 21.5436 17.4875 21.3003 17.7384C21.0528 17.9935 20.7427 18.1792 20.401 18.2769Z"></path>
      <path fill-rule="evenodd" clip-rule="evenodd" d="M9.37289 7.8317C9.60374 7.69741 9.8886 7.69602 10.1208 7.82805L15.8708 11.098C16.1052 11.2314 16.25 11.4803 16.25 11.75C16.25 12.0197 16.1052 12.2686 15.8708 12.4019L10.1208 15.6719C9.8886 15.804 9.60374 15.8026 9.37289 15.6683C9.14203 15.534 9 15.2871 9 15.02V8.48C9 8.21292 9.14203 7.96599 9.37289 7.8317ZM10.5 9.76932V13.7307L13.9828 11.75L10.5 9.76932Z"></path>
    </g>
    <defs>
      <clipPath id="clip0_1_2">
        <rect width="24" height="24" fill="white" transform="translate(24 24) rotate(-180)"></rect>
      </clipPath>
    </defs>
  </symbol>
</svg>